<svg width="140" height="150" viewBox="0 0 140 150" fill="none" xmlns="http://www.w3.org/2000/svg">
<rect width="136" height="136" rx="10" fill="#FBFBFB"/>
<path d="M100.116 61.5522C89.2179 61.5522 79.4638 66.387 72.8056 74.0052C71.8125 73.9014 70.843 73.7007 69.8255 73.7007C53.099 73.7007 39.5337 87.3024 39.5337 104.074C39.5337 120.846 53.099 134.448 69.8255 134.448H100.116C120.194 134.448 136.466 118.131 136.466 97.9994C136.466 77.8681 120.194 61.5522 100.116 61.5522Z" fill="#F84437"/>
<path d="M100.116 67.627C92.4225 67.627 85.3103 70.4886 79.8513 75.4812C81.7536 76.0822 83.6741 76.9573 85.588 78.1417C85.6853 78.197 85.7824 78.2579 85.8797 78.318L85.8975 78.3304C89.9454 75.3662 94.8641 73.701 100.116 73.701C113.48 73.701 124.349 84.5999 124.349 97.9998C124.349 111.401 113.48 122.299 100.116 122.299C94.8822 122.299 89.8898 120.64 85.6729 117.487C83.9646 116.224 82.5716 114.893 81.4077 113.424C81.3414 113.339 81.2744 113.259 81.1958 113.18L72.1693 102.149C71.1029 100.848 69.1938 100.655 67.9047 101.723C66.6078 102.787 66.4203 104.7 67.4798 106.001L76.6834 117.25C76.7309 117.311 76.7853 117.372 76.8404 117.426C78.3059 119.237 80.0209 120.852 82.0688 122.365C87.3206 126.296 93.5608 128.373 100.116 128.373C116.818 128.373 130.408 114.748 130.408 97.9996C130.408 81.2524 116.819 67.627 100.116 67.627Z" fill="#FCFCFC"/>
<path d="M72.8476 122.025C71.8601 122.189 70.8487 122.298 69.8256 122.298C59.804 122.298 51.6499 114.122 51.6499 104.074C51.6499 92.0171 63.2634 82.4308 75.9201 86.9557C76.9981 87.2605 78.174 87.8128 79.4153 88.6018C79.4697 88.6392 79.5307 88.6686 79.591 88.7056L98.5111 100.582C99.9346 101.468 101.801 101.038 102.685 99.6095C103.57 98.1883 103.14 96.3165 101.729 95.4241L82.6694 83.4633C82.6206 83.4331 82.5654 83.402 82.5115 83.3725C80.8211 82.3149 79.1608 81.5562 77.7619 81.1735C75.2049 80.2436 72.5395 79.7754 69.8258 79.7754C56.4613 79.7754 45.5925 90.6739 45.5925 104.075C45.5925 117.476 56.4613 128.373 69.8258 128.373C72.6793 128.373 75.4472 127.845 78.0519 126.903C76.0885 125.415 74.3806 123.793 72.8476 122.025Z" fill="#FCFCFC"/>
</svg>
