<svg width="138" height="148" viewBox="0 0 138 148" fill="none" xmlns="http://www.w3.org/2000/svg">
<rect width="136" height="136" rx="10" fill="#5E92C9"/>
<path d="M86.08 147.5H91.255V140.485H89.3C84.125 140.485 82.63 138.53 82.63 132.205V112.425C82.63 106.215 80.445 102.765 75.845 101.615V101.385C80.445 100.12 82.63 96.785 82.63 90.69V70.795C82.63 64.47 84.125 62.515 89.3 62.515H91.255V55.5H86.08C78.605 55.5 74.235 59.64 74.235 67.805V89.655C74.235 95.865 72.51 97.935 66.875 97.935V104.95C72.51 104.95 74.235 107.02 74.235 113.46V135.08C74.235 144.165 79.41 147.5 86.08 147.5ZM99.8423 136H118.702C131.237 136 137.217 129.675 137.217 117.255V110.355C137.217 101.385 134.227 95.52 126.982 93.45V93.22C133.077 91.035 135.952 85.745 135.952 77.12V73.785C135.952 61.25 130.547 55.5 117.782 55.5H99.8423V136ZM108.812 89.885V63.665H117.552C124.222 63.665 126.982 66.885 126.982 74.705V78.845C126.982 86.895 123.417 89.885 116.402 89.885H108.812ZM108.812 127.835V98.05H116.862C125.027 98.05 128.247 101.27 128.247 110.125V117.025C128.247 124.73 125.257 127.835 118.702 127.835H108.812Z" fill="white"/>
</svg>
