<svg width="141" height="136" viewBox="0 0 141 136" fill="none" xmlns="http://www.w3.org/2000/svg">
<rect width="136" height="136" rx="10" fill="#194675"/>
<g clip-path="url(#clip0)">
<path d="M129.731 128.417L102.002 136L74.2734 128.417L67.875 58H136.13L129.731 128.417Z" fill="#3574B7"/>
<path d="M102 62.875V130.516L124.503 123.832L130.49 62.875H102Z" fill="#5E92C9"/>
<path d="M122.385 72.625H81.542L82.4999 82.375H102L83.1093 89.6631L84.0087 99.4375H110.536L109.698 109.188L102 111.601L94.3486 109.148L93.5491 104.312H84.4572L85.5761 116.468L102 121.351L118.399 116.466L120.815 89.6631H102.063L121.5 82.375L122.385 72.625Z" fill="white"/>
</g>
<path d="M87.25 56.5C92.1 56.5 94.45 53.45 94.45 48.45V46.85H90.8V48.8C90.8 51.6 89.75 53.15 87.25 53.15C84.75 53.15 83.7 51.6 83.7 48.8V38C83.7 35.2 84.75 33.7 87.25 33.7C89.75 33.7 90.8 35.2 90.8 38V39.45H94.45V38.35C94.45 33.35 92.1 30.35 87.25 30.35C82.45 30.35 79.9 33.2 79.9 38.35V48.45C79.9 53.6 82.45 56.5 87.25 56.5ZM104.619 56.5C109.119 56.5 111.619 53.8 111.619 49.5C111.619 45 108.519 43.35 105.719 41.9C103.319 40.7 101.219 39.55 101.219 37C101.219 34.7 102.669 33.6 104.419 33.6C106.319 33.6 107.619 34.7 107.619 37.25V37.85H111.169V37.35C111.169 32.95 108.469 30.35 104.369 30.35C100.069 30.35 97.5688 32.95 97.5688 37.05C97.5688 41.7 100.719 43.3 103.519 44.8C105.819 45.95 107.869 47.1 107.869 49.55C107.869 52.1 106.469 53.2 104.419 53.2C102.369 53.2 100.969 52.05 100.969 49.35V48.4H97.3188V49.25C97.3188 53.8 100.019 56.5 104.619 56.5ZM121.562 56.5C126.062 56.5 128.562 53.8 128.562 49.5C128.562 45 125.462 43.35 122.662 41.9C120.262 40.7 118.162 39.55 118.162 37C118.162 34.7 119.612 33.6 121.362 33.6C123.262 33.6 124.562 34.7 124.562 37.25V37.85H128.112V37.35C128.112 32.95 125.412 30.35 121.312 30.35C117.012 30.35 114.512 32.95 114.512 37.05C114.512 41.7 117.662 43.3 120.462 44.8C122.762 45.95 124.812 47.1 124.812 49.55C124.812 52.1 123.412 53.2 121.362 53.2C119.312 53.2 117.912 52.05 117.912 49.35V48.4H114.262V49.25C114.262 53.8 116.962 56.5 121.562 56.5Z" fill="white"/>
<defs>
<clipPath id="clip0">
<rect width="78" height="78" fill="white" transform="translate(63 58)"/>
</clipPath>
</defs>
</svg>
