<svg width="137" height="136" viewBox="0 0 137 136" fill="none" xmlns="http://www.w3.org/2000/svg">
<rect width="136" height="136" rx="10" fill="#EBEBEB"/>
<rect x="78" y="54" width="58.3111" height="27.3333" rx="13.6667" fill="#EF4626"/>
<rect x="107.156" y="83.1555" width="27.3333" height="27.3333" rx="13.6667" fill="#1EB3FA"/>
<path d="M78 95C78 87.4522 84.1188 81.3334 91.6667 81.3334H107.156V108.667H91.6667C84.1188 108.667 78 102.548 78 95V95Z" fill="#9750F9"/>
<path d="M136.311 67.6667C136.311 60.1188 130.192 54 122.644 54H107.155V81.3333H122.644C130.192 81.3333 136.311 75.2146 136.311 67.6667V67.6667Z" fill="#FE685B"/>
<path d="M78 122.333C78 114.785 84.1188 108.667 91.6667 108.667H107.156V122.333C107.156 129.881 101.037 136 93.4889 136H91.6667C84.1188 136 78 129.881 78 122.333V122.333Z" fill="#19C87C"/>
</svg>
