<svg width="148" height="136" viewBox="0 0 148 136" fill="none" xmlns="http://www.w3.org/2000/svg">
<rect width="136" height="136" rx="10" fill="#7484DE"/>
<path fill-rule="evenodd" clip-rule="evenodd" d="M115.733 136H104.011H92.2782C92.2782 136 92.3104 129.042 92.2782 124.267C76.224 127.722 71.7448 115.467 71.7448 115.467C68.8115 109.6 65.8782 106.667 65.8782 106.667C60.0115 103.182 65.8782 103.733 65.8782 103.733C71.7448 103.733 74.6782 109.6 74.6782 109.6C79.8262 118.344 88.987 116.936 92.2782 115.467C92.2782 112.533 93.563 108.098 95.2115 106.667C82.3987 105.223 71.7331 97.8667 71.7331 83.2C71.7331 68.5333 74.6782 65.6 77.6115 62.6667C77.019 61.2205 74.5638 55.876 77.7024 48C77.7024 48 83.4664 48 89.3331 56.8C92.24 53.8931 101.066 53.8667 104.003 53.8667C106.933 53.8667 115.759 53.8931 118.666 56.8C124.533 48 130.309 48 130.309 48C133.447 55.876 130.992 61.2205 130.4 62.6667C133.333 65.6 136.266 68.5333 136.266 83.2C136.266 97.8667 125.613 105.223 112.8 106.667C114.448 108.098 115.733 113.149 115.733 115.467V136Z" fill="white"/>
</svg>
