<svg width="141" height="136" viewBox="0 0 141 136" fill="none" xmlns="http://www.w3.org/2000/svg">
<rect width="136" height="136" rx="10" fill="#B9D6B9"/>
<path d="M79.25 30.35C77 30.35 75.25 31.4 74.15 33.25V21H70.4V56H74.15V39.3C74.15 35.55 75.85 33.7 78.1 33.7C80.3 33.7 81.25 35.2 81.25 38.1V56H85.05V37.6C85.05 32.6 82.95 30.35 79.25 30.35ZM99.4883 34.05V30.85H94.9383V23.6H91.6883L91.2883 30.85H88.0383V34.05H91.1383V50.75C91.1383 54.6 92.9383 56.5 96.6883 56.5C97.7883 56.5 98.5883 56.4 99.4883 56V52.75C98.7383 53.05 98.0383 53.15 97.3883 53.15C95.5883 53.15 94.9383 52.35 94.9383 50.35V34.05H99.4883ZM122.121 30.35C119.671 30.35 117.771 31.7 116.771 34.05C115.971 31.5 114.171 30.35 111.571 30.35C109.071 30.35 107.171 31.75 106.171 34.15L106.121 30.85H102.871V56H106.621V39.3C106.621 35.6 108.221 33.7 110.421 33.7C112.571 33.7 113.421 35.25 113.421 37.65V56H117.221V39.3C117.221 35.6 118.821 33.7 121.021 33.7C123.171 33.7 124.021 35.25 124.021 37.65V56H127.771V37.4C127.771 32.55 125.671 30.35 122.121 30.35ZM132.363 56H136.113V21H132.363V56Z" fill="white"/>
<g clip-path="url(#clip0)">
<path d="M129.731 128.417L102.002 136L74.2734 128.417L67.875 58H136.13L129.731 128.417Z" fill="#4F964F"/>
<path d="M102 62.875V130.516L124.503 123.832L130.49 62.875H102Z" fill="#8FC68F"/>
<path d="M122.385 72.625H81.542L82.4999 82.375L84.0087 99.4375H110.538L109.673 109.148L102 111.601L94.3389 109.148L93.8294 104.312H84.4572L85.5761 116.468L102 121.351L118.399 116.466L120.813 89.6875H92.8642L92.2548 82.375H121.5L122.385 72.625Z" fill="white"/>
</g>
<defs>
<clipPath id="clip0">
<rect width="78" height="78" fill="white" transform="translate(63 58)"/>
</clipPath>
</defs>
</svg>
