<svg width="138" height="138" viewBox="0 0 138 138" fill="none" xmlns="http://www.w3.org/2000/svg">
<rect width="136" height="136" rx="10" fill="#FBDB8A"/>
<path d="M75.82 136.46C87.32 136.46 92.725 130.48 92.725 117.945V55.5H83.755V118.175C83.755 125.19 80.88 128.295 74.67 128.295C72.945 128.295 71.45 128.065 69.955 127.605V135.77C71.68 136.345 73.52 136.46 75.82 136.46ZM118.921 137.15C130.651 137.15 137.206 130.02 137.206 117.485C137.206 107.71 133.641 101.27 122.601 92.07C113.056 84.25 109.836 79.65 109.836 72.98C109.836 65.965 113.286 62.515 119.036 62.515C124.901 62.515 128.236 65.965 128.236 73.21V77.005H136.746V73.785C136.746 61.48 130.651 54.35 119.036 54.35C107.421 54.35 100.981 61.48 100.981 73.555C100.981 82.64 104.661 89.08 115.816 98.28C125.131 105.985 128.236 110.7 128.236 118.175C128.236 125.535 124.671 128.985 118.806 128.985C113.056 128.985 109.491 125.535 109.491 118.29V113.115H100.981V117.6C100.981 130.02 107.191 137.15 118.921 137.15Z" fill="white"/>
</svg>
