<svg width="138" height="138" viewBox="0 0 138 138" fill="none" xmlns="http://www.w3.org/2000/svg">
<rect width="136" height="136" rx="10" fill="#D5438E"/>
<path d="M53.84 136H62.465L74.54 103.915L86.615 136H96.16L80.29 94.83L95.47 55.5H86.845L75.345 85.63L64.075 55.5H54.53L69.71 94.83L53.84 136ZM137.501 136C136.696 132.665 136.236 127.605 136.236 120.245V55.5H127.611V83.905C125.081 79.535 120.826 77.005 115.651 77.005C107.256 77.005 102.196 82.18 102.196 93.68V120.36C102.196 131.86 107.256 137.15 115.651 137.15C121.631 137.15 126.231 133.815 128.646 128.18C128.761 131.975 129.106 134.735 129.566 136H137.501ZM118.296 129.445C113.006 129.445 110.936 125.65 110.936 119.67V94.37C110.936 88.505 113.006 84.71 118.296 84.71C123.586 84.71 127.611 89.08 127.611 97.59V116.565C127.611 125.075 123.586 129.445 118.296 129.445Z" fill="white"/>
</svg>
