<svg xmlns="http://www.w3.org/2000/svg" width="28.108" height="28.108" viewBox="0 0 28.108 28.108">
  <path id="facebook" d="M4.117,28.108h9.168V18.116H9.991V14.822h3.294V10.705A4.122,4.122,0,0,1,17.4,6.588H21.52V9.882H18.226a1.649,1.649,0,0,0-1.647,1.647v3.294h4.792l-.549,3.294H16.579v9.991H23.99a4.122,4.122,0,0,0,4.117-4.117V4.117A4.122,4.122,0,0,0,23.99,0H4.117A4.122,4.122,0,0,0,0,4.117V23.99A4.122,4.122,0,0,0,4.117,28.108ZM1.647,4.117a2.473,2.473,0,0,1,2.47-2.47H23.99a2.473,2.473,0,0,1,2.47,2.47V23.99a2.473,2.473,0,0,1-2.47,2.47H18.226v-6.7h3.991l1.1-6.588H18.226V11.529h4.941V4.941H17.4a5.771,5.771,0,0,0-5.764,5.764v2.47H8.344v6.588h3.294v6.7H4.117a2.473,2.473,0,0,1-2.47-2.47Zm0,0" fill="#fff"/>
</svg>
