<svg id="instagram" xmlns="http://www.w3.org/2000/svg" width="28.108" height="28.108" viewBox="0 0 28.108 28.108">
  <path id="Path_218" data-name="Path 218" d="M20.5,0H7.608A7.617,7.617,0,0,0,0,7.608V20.5a7.617,7.617,0,0,0,7.608,7.608H20.5A7.617,7.617,0,0,0,28.108,20.5V7.608A7.617,7.617,0,0,0,20.5,0ZM26.46,20.5A5.967,5.967,0,0,1,20.5,26.46H7.608A5.967,5.967,0,0,1,1.648,20.5V7.608A5.967,5.967,0,0,1,7.608,1.648H20.5a5.967,5.967,0,0,1,5.96,5.961Zm0,0" fill="#fff"/>
  <path id="Path_219" data-name="Path 219" d="M123.689,116a7.685,7.685,0,1,0,7.685,7.685A7.694,7.694,0,0,0,123.689,116Zm0,13.723a6.038,6.038,0,1,1,6.038-6.038A6.045,6.045,0,0,1,123.689,129.727Zm0,0" transform="translate(-109.636 -109.636)" fill="#fff"/>
  <path id="Path_220" data-name="Path 220" d="M360.248,66.285a2.271,2.271,0,1,0,2.271,2.271A2.273,2.273,0,0,0,360.248,66.285Zm0,2.894a.623.623,0,1,1,.623-.623A.624.624,0,0,1,360.248,69.179Zm0,0" transform="translate(-338.324 -62.646)" fill="#fff"/>
</svg>
