<svg xmlns="http://www.w3.org/2000/svg" width="28.108" height="23.075" viewBox="0 0 28.108 23.075">
  <path id="twitter" d="M.537,22.777a16.483,16.483,0,0,0,8.85,2.55A16.185,16.185,0,0,0,25.806,8.871a6.721,6.721,0,0,0,2.426-4.55.889.889,0,0,0-1.337-.766,3.671,3.671,0,0,1-2.985.5A6.339,6.339,0,0,0,16.4,3.045a6.1,6.1,0,0,0-3.311,5.716A14.707,14.707,0,0,1,3.551,3.55.889.889,0,0,0,2.1,3.669a6.186,6.186,0,0,0-.138,6.109.924.924,0,0,0-.772.92,6.26,6.26,0,0,0,2.181,4.728.886.886,0,0,0-.227.92A6.371,6.371,0,0,0,6.75,20.207a10.334,10.334,0,0,1-5.628.94.888.888,0,0,0-.585,1.63Zm9.092-2.265a.888.888,0,0,0-.522-1.591A4.629,4.629,0,0,1,5.472,17.03a6.26,6.26,0,0,0,1.212-.194.888.888,0,0,0-.057-1.727,4.556,4.556,0,0,1-3.452-3.1,6.125,6.125,0,0,0,1.354.18.889.889,0,0,0,.505-1.628A4.41,4.41,0,0,1,3.145,5.746a16.5,16.5,0,0,0,10.932,4.879.886.886,0,0,0,.908-1.085,4.331,4.331,0,0,1,2.26-4.931,4.538,4.538,0,0,1,5.548.843c.529.557,2.314.579,3.221.367a5.72,5.72,0,0,1-1.619,1.9.888.888,0,0,0-.378.77,14.431,14.431,0,0,1-3.974,10.6A14.535,14.535,0,0,1,9.388,23.551a14.9,14.9,0,0,1-4.782-.783,11.985,11.985,0,0,0,5.024-2.256Z" transform="translate(-0.124 -2.252)" fill="#fff"/>
</svg>
