<svg id="Layer_6" data-name="Layer 6" xmlns="http://www.w3.org/2000/svg" viewBox="0 0 316.04 318.27"><defs><style>.cls-1,.cls-2{fill:none;stroke:#000;stroke-linejoin:round;stroke-width:2px;}.cls-1{stroke-linecap:round;}</style></defs><path class="cls-1" d="M758,188.11V120.87a16.78,16.78,0,0,1,3.17-14c5.52-6.72,14.06-5.78,14.59-5.71H944.48L1006,162.1V398.72a18.44,18.44,0,0,1-13.85,18.5H779.55a18.87,18.87,0,0,1-21.15-14.49V360.86c52.09,12.16,102.79-22.36,110.8-71,7.59-46.13-25.39-91.34-71-100.23-51.28-10-100.6,29.32-105.73,77-3.51,32.55,14,65.68,44.4,85.42L747,338c-25-14.64-38.93-42.23-35.52-69.78,4-32.44,31.31-58.57,64.7-60.9s64.63,19.9,72.74,52c7.35,29.07-5.89,59.29-29.6,74.85-26.64,17.48-55.68,9.34-60,8" transform="translate(-690.98 -100.12)"/><path class="cls-1" d="M944.36,104.69v42.05a16.16,16.16,0,0,0,1.9,10.51,10.93,10.93,0,0,0,8.73,5.48h47.85" transform="translate(-690.98 -100.12)"/><path class="cls-2" d="M892.89,224.69h83.73" transform="translate(-690.98 -100.12)"/><path class="cls-2" d="M892.89,254.29h83.73" transform="translate(-690.98 -100.12)"/><path class="cls-2" d="M892.89,283.9h56.24" transform="translate(-690.98 -100.12)"/><path class="cls-1" d="M734.4,328.09a14.23,14.23,0,0,1,5.25-12.42,20.64,20.64,0,0,1,5.26-2.79,60.65,60.65,0,0,1,20.2-4,30.88,30.88,0,0,0,16.17,4,30.52,30.52,0,0,0,14.14-3.72l18.18,1.55a28.87,28.87,0,0,1,4.45,1.55,23.06,23.06,0,0,1,11.72,11.48" transform="translate(-690.98 -100.12)"/><path class="cls-1" d="M752.9,267.61a6.63,6.63,0,0,0,.43,5.92,6.34,6.34,0,0,0,4.23,2.75,24.23,24.23,0,0,0,4.44,12.9c.59.83,7.18,9.69,18.6,9.94,11.95.26,19.17-9.13,21.15-12.05a28,28,0,0,0,4.44-11.42,7,7,0,0,0,4.23-2.54,7.39,7.39,0,0,0,0-8.25l.21-8.24a67.25,67.25,0,0,1-18,5.28c-7,1-10.47.37-18,1.27a83.88,83.88,0,0,0-19,4.66A27.56,27.56,0,0,1,751,255.77c-.22-1.74-1.25-11.13,4.86-19.24,7.82-10.37,21-10.36,25.17-10.36,4.66,0,13.24,0,20.3,6.55,8.27,7.69,8.09,18.49,8,20.3" transform="translate(-690.98 -100.12)"/><path class="cls-2" d="M764.05,309a16.22,16.22,0,0,0,5.71-6.52,10.05,10.05,0,0,0,.64-6.27" transform="translate(-690.98 -100.12)"/><path class="cls-2" d="M797,309.38a16,16,0,0,1-5.71-6.34,9.5,9.5,0,0,1-.64-6.09" transform="translate(-690.98 -100.12)"/><path class="cls-1" d="M782.84,223.9a26.76,26.76,0,0,1,18-.85A25,25,0,0,1,811,229.18c7.74,8,7.5,19.86,7.4,25.16-.23,11.27-3.94,15.32-1.06,19.88s10.16,5.54,15.86,5.5c-.29.76-2.06,5.14-6.34,6.55-4.83,1.59-11-1.19-14-7.19" transform="translate(-690.98 -100.12)"/></svg>