<svg id="Layer_2" data-name="Layer 2" xmlns="http://www.w3.org/2000/svg" viewBox="0 0 100.39 91.23"><defs><style>.cls-1,.cls-2{fill:none;stroke:#000;stroke-linejoin:round;}.cls-1{stroke-linecap:round;stroke-width:1.8px;}.cls-2{stroke-width:1.55px;}</style></defs><path class="cls-1" d="M632.59,392.12l.18,24.67a9.16,9.16,0,0,0,2.05,5.68,10.22,10.22,0,0,0,6.69,3.52h80a10.78,10.78,0,0,0,6-2.6,10,10,0,0,0,3.3-6.31l.39-57.72a9.78,9.78,0,0,0-2.53-5.75,10.88,10.88,0,0,0-7.18-3.34H643.26c-.37-.06-4.88-.63-7.92,2.59a8.23,8.23,0,0,0-2.18,5.66l0,21.23a9.19,9.19,0,0,0,3,6.43,9.73,9.73,0,0,0,6.21,1.86H722a8.34,8.34,0,0,0,4.37-1.49,6.16,6.16,0,0,0,.77-.65" transform="translate(-631.69 -335.66)"/><path class="cls-2" d="M662.09,349.89q-.06-3.64-.1-7.31a5.25,5.25,0,0,1,2-4,10.45,10.45,0,0,1,5.72-2.15h22.13a11.47,11.47,0,0,1,6.4,1.53,6,6,0,0,1,2.82,3.76l.09,8.42" transform="translate(-631.69 -335.66)"/></svg>