<svg width="40" height="47" viewBox="0 0 40 47" fill="none" xmlns="http://www.w3.org/2000/svg">
<g clip-path="url(#clip0)">
<path d="M0.670738 20.3741H5.30984" stroke="#B7B7B7" stroke-linecap="round"/>
<path d="M6.38036 6.66086L9.71087 9.90858" stroke="#B7B7B7" stroke-linecap="round"/>
<path d="M6.38036 34.0874L9.71087 30.8397" stroke="#B7B7B7" stroke-linecap="round"/>
<path d="M30.4082 9.90858L33.7387 6.66086" stroke="#B7B7B7" stroke-linecap="round"/>
<path d="M30.4082 30.8397L33.7387 34.0874" stroke="#B7B7B7" stroke-linecap="round"/>
<path d="M20.1786 0.886795V5.57828" stroke="#B7B7B7" stroke-linecap="round"/>
<path d="M34.6902 20.3741H39.3293" stroke="#B7B7B7" stroke-linecap="round"/>
<path d="M26.0096 33.9534C26.0239 32.5726 26.2386 31.2014 26.6468 29.8836C27.5053 27.1331 28.6925 26.4107 29.5075 24.118C29.769 23.3821 30.7215 20.4416 29.8261 17.6741C28.5517 13.7298 23.9505 11.427 19.9663 11.5694C16.6898 11.6881 12.6084 13.5026 11.059 17.335C9.97581 20.0143 10.5426 22.6597 10.7404 23.4397C11.4346 26.1529 12.8599 26.7634 14.2416 29.5444C14.9996 31.074 15.8547 33.4786 15.8849 37.0058H25.7447C26.2842 37.1194 26.7686 37.4174 27.1164 37.8498C27.4641 38.2822 27.6539 38.8225 27.6539 39.3799C27.6539 39.9372 27.4641 40.4775 27.1164 40.9099C26.7686 41.3423 26.2842 41.6404 25.7447 41.7539H17.156" stroke="#B7B7B7" stroke-linecap="round" stroke-linejoin="round"/>
<path d="M16.9548 41.7539H26.6804C27.0144 41.7096 27.354 41.7379 27.6764 41.8369C27.9988 41.9359 28.2966 42.1034 28.5499 42.3281C28.8032 42.5528 29.0061 42.8296 29.1451 43.14C29.2841 43.4504 29.3561 43.7872 29.3561 44.128C29.3561 44.4687 29.2841 44.8056 29.1451 45.1159C29.0061 45.4263 28.8032 45.7031 28.5499 45.9279C28.2966 46.1526 27.9988 46.3201 27.6764 46.4191C27.354 46.5181 27.0144 46.5464 26.6804 46.502H16.9548V40.3973" stroke="#B7B7B7" stroke-linecap="round" stroke-linejoin="round"/>
<path d="M20.3084 37.5145V44.4671" stroke="#B7B7B7" stroke-linecap="round" stroke-linejoin="round"/>
<path d="M16.9548 39.2103C17.2326 39.2103 17.4578 38.9825 17.4578 38.7015C17.4578 38.4206 17.2326 38.1928 16.9548 38.1928C16.6769 38.1928 16.4517 38.4206 16.4517 38.7015C16.4517 38.9825 16.6769 39.2103 16.9548 39.2103Z" fill="#B7B7B7"/>
</g>
<defs>
<clipPath id="clip0">
<rect width="40" height="47" fill="white"/>
</clipPath>
</defs>
</svg>
