<svg width="40" height="41" viewBox="0 0 40 41" fill="none" xmlns="http://www.w3.org/2000/svg">
<g clip-path="url(#clip0)">
<path d="M8.48247 11.1366V2.62627C8.41412 2.31963 8.41466 2.00165 8.48404 1.69524C8.55342 1.38883 8.68991 1.10164 8.88368 0.854346C9.58233 0.00382103 10.6632 0.122793 10.7303 0.131653H32.0845L39.8709 7.8446V37.7927C39.8893 38.3243 39.7255 38.8463 39.4067 39.2721C39.0879 39.6979 38.6332 40.0021 38.118 40.1342H11.21C10.6148 40.2218 10.0085 40.0816 9.51226 39.7416C9.016 39.4016 8.66631 38.8869 8.5331 38.3002V33.0009C15.1259 34.54 21.5428 30.1709 22.5566 24.0147C23.5173 18.1762 19.3431 12.4541 13.5704 11.329C7.08011 10.0633 0.83786 15.0399 0.188575 21.0746C-0.255673 25.1943 1.96051 29.3874 5.80812 31.8859L7.09024 30.1076C3.92608 28.2547 2.16301 24.7627 2.5946 21.2758C3.10087 17.17 6.55739 13.8628 10.7834 13.5679C15.0095 13.273 18.9634 16.0866 19.9899 20.1494C20.9201 23.8287 19.2444 27.6535 16.2435 29.6229C12.8718 31.8352 9.1963 30.805 8.64954 30.6354" stroke="#B7B7B7" stroke-linecap="round" stroke-linejoin="round"/>
<path d="M32.0693 0.578407V5.90052C31.9964 6.35836 32.0812 6.8274 32.3098 7.23073C32.4227 7.4283 32.5827 7.59496 32.7754 7.71595C32.9681 7.83693 33.1877 7.9085 33.4147 7.92431H39.471" stroke="#B7B7B7" stroke-linecap="round" stroke-linejoin="round"/>
<path d="M25.555 15.7663H36.1524" stroke="#B7B7B7" stroke-linejoin="round"/>
<path d="M25.555 19.5127H36.1524" stroke="#B7B7B7" stroke-linejoin="round"/>
<path d="M25.555 23.2603H32.6731" stroke="#B7B7B7" stroke-linejoin="round"/>
<path d="M5.4955 28.8533C5.46765 28.5568 5.51376 28.258 5.62973 27.9836C5.74569 27.7093 5.92788 27.468 6.15998 27.2814C6.36366 27.1321 6.5879 27.0132 6.82571 26.9283C7.64283 26.615 8.50751 26.4438 9.38235 26.422C10.0053 26.775 10.7132 26.9502 11.4289 26.9283C12.0548 26.9186 12.669 26.7571 13.2186 26.4574L15.5195 26.6536C15.7123 26.7035 15.9007 26.7692 16.0828 26.8498C16.7386 27.1359 17.2665 27.653 17.5661 28.3028" stroke="#B7B7B7" stroke-linecap="round" stroke-linejoin="round"/>
<path d="M7.837 21.1986C7.78722 21.3191 7.76623 21.4496 7.77567 21.5797C7.78512 21.7097 7.82475 21.8358 7.89142 21.9479C7.95208 22.0394 8.0309 22.1176 8.12299 22.1774C8.21508 22.2373 8.31848 22.2776 8.42679 22.2959C8.45386 22.8827 8.64891 23.4494 8.98874 23.9286C9.06342 24.0337 9.89749 25.155 11.3429 25.1867C12.8553 25.2196 13.7691 24.0311 14.0197 23.6616C14.3115 23.2272 14.5034 22.7336 14.5817 22.2162C14.7933 22.1776 14.9835 22.0633 15.1171 21.8947C15.2209 21.7404 15.2763 21.5586 15.2763 21.3726C15.2763 21.1866 15.2209 21.0049 15.1171 20.8505L15.1437 19.8076C14.4192 20.1357 13.6524 20.3607 12.8655 20.4759C11.9795 20.6025 11.5403 20.5227 10.5873 20.6366C9.76543 20.7388 8.95836 20.9367 8.18252 21.2264C7.86902 20.7712 7.66816 20.2481 7.59652 19.7C7.56867 19.4798 7.43831 18.2914 8.21163 17.2649C9.20137 15.9524 10.8695 15.9537 11.3973 15.9537C11.9871 15.9537 13.073 15.9537 13.9666 16.7827C15.0133 17.756 14.9905 19.1229 14.9791 19.352" stroke="#B7B7B7" stroke-linecap="round" stroke-linejoin="round"/>
<path d="M9.2482 26.4372C9.55949 26.2328 9.80931 25.9475 9.9709 25.612C10.0823 25.363 10.1107 25.0848 10.0519 24.8184" stroke="#B7B7B7" stroke-linejoin="round"/>
<path d="M13.4185 26.4853C13.1095 26.2881 12.8597 26.0108 12.6959 25.6828C12.5845 25.4419 12.556 25.1709 12.6149 24.912" stroke="#B7B7B7" stroke-linejoin="round"/>
<path d="M11.6264 15.6663C12.3505 15.3682 13.1556 15.3302 13.9046 15.5588C14.3893 15.7104 14.8303 15.9765 15.1905 16.3346C16.1701 17.3471 16.1397 18.8482 16.1271 19.519C16.098 20.9454 15.6284 21.458 15.9929 22.0352C16.3574 22.6123 17.2788 22.7363 18.0003 22.7313C17.9636 22.8275 17.7395 23.3818 17.1978 23.5603C16.5865 23.7615 15.8056 23.4097 15.4259 22.6503" stroke="#B7B7B7" stroke-linecap="round" stroke-linejoin="round"/>
</g>
<defs>
<clipPath id="clip0">
<rect width="40" height="40.2822" fill="white"/>
</clipPath>
</defs>
</svg>
