<svg width="40" height="41" viewBox="0 0 40 41" fill="none" xmlns="http://www.w3.org/2000/svg">
<path d="M8.98454 11.4546V3.37756C8.91919 3.08653 8.9197 2.78474 8.98604 2.49393C9.05238 2.20312 9.1829 1.93055 9.36819 1.69585C10.0362 0.888626 11.0698 1.00154 11.1339 1.00995H31.5532L38.9987 8.33021V36.7536C39.0163 37.2581 38.8597 37.7535 38.5548 38.1576C38.25 38.5618 37.8152 38.8505 37.3225 38.9758H11.5926C11.0235 39.059 10.4438 38.9259 9.96925 38.6032C9.49471 38.2805 9.16034 37.792 9.03295 37.2352V32.2057C15.3371 33.6664 21.4731 29.5198 22.4425 23.677C23.3611 18.1358 19.3697 12.7051 13.8497 11.6372C7.64359 10.436 1.67464 15.1592 1.05379 20.8866C0.628991 24.7966 2.74814 28.7762 6.42729 31.1474L7.65327 29.4597C4.62765 27.7011 2.94177 24.387 3.35447 21.0776C3.83857 17.1808 7.14375 14.042 11.1848 13.7621C15.2258 13.4823 19.0066 16.1526 19.9881 20.0085C20.8776 23.5005 19.2753 27.1306 16.4058 28.9997C13.1817 31.0994 9.66712 30.1216 9.14429 29.9606" stroke="#FBC103" stroke-width="2" stroke-linecap="round" stroke-linejoin="round"/>
<path d="M32.024 1V6.0715C31.9553 6.50779 32.0352 6.95473 32.2506 7.33908C32.3571 7.52734 32.5078 7.68616 32.6894 7.80145C32.8711 7.91673 33.0781 7.98493 33.292 8H39" stroke="#FBC103" stroke-width="2" stroke-linecap="round" stroke-linejoin="round"/>
<path d="M25 16H35" stroke="#FBC103" stroke-linecap="round" stroke-linejoin="round"/>
<path d="M25 20H35" stroke="#FBC103" stroke-linecap="round" stroke-linejoin="round"/>
<path d="M25 24H32" stroke="#FBC103" stroke-linecap="round" stroke-linejoin="round"/>
<path d="M6.00784 28C5.98017 27.7561 6.02598 27.5103 6.14119 27.2846C6.2564 27.0589 6.43741 26.8605 6.668 26.7069C6.87035 26.5841 7.09313 26.4863 7.3294 26.4164C8.14121 26.1588 9.00027 26.0179 9.86942 26C10.4883 26.2904 11.1917 26.4345 11.9027 26.4164C12.5245 26.4085 13.1347 26.2756 13.6807 26.0292L15.9667 26.1905C16.1582 26.2316 16.3454 26.2856 16.5263 26.3519C17.1779 26.5873 17.7023 27.0126 18 27.5471" stroke="#FBC103" stroke-linecap="round" stroke-linejoin="round"/>
<path d="M8.2417 21.1122C8.19649 21.2297 8.17741 21.3568 8.18599 21.4836C8.19458 21.6104 8.23058 21.7332 8.29114 21.8425C8.34625 21.9317 8.41785 22.0079 8.50151 22.0663C8.58517 22.1246 8.67911 22.1639 8.7775 22.1817C8.8021 22.7537 8.97929 23.3061 9.28801 23.7731C9.35585 23.8755 10.1136 24.9685 11.4266 24.9993C12.8006 25.0314 13.6308 23.873 13.8584 23.5128C14.1235 23.0894 14.2978 22.6083 14.3689 22.104C14.5611 22.0664 14.734 21.955 14.8553 21.7907C14.9496 21.6403 15 21.4631 15 21.2818C15 21.1005 14.9496 20.9233 14.8553 20.7729L14.8795 19.7564C14.2213 20.0762 13.5247 20.2955 12.8098 20.4078C12.005 20.5311 11.606 20.4534 10.7402 20.5644C9.99359 20.664 9.2604 20.8569 8.55559 21.1393C8.27079 20.6956 8.08832 20.1857 8.02324 19.6516C7.99794 19.4369 7.87951 18.2785 8.58203 17.278C9.48117 15.9988 10.9966 16 11.4761 16C12.0119 16 12.9984 16 13.8101 16.808C14.761 17.7567 14.7403 19.089 14.73 19.3123" stroke="#FBC103" stroke-linecap="round" stroke-linejoin="round"/>
<path d="M10 26C10.3734 25.8737 10.6731 25.6975 10.867 25.4902C11.0006 25.3364 11.0347 25.1645 10.9641 25" stroke="#FBC103" stroke-width="2" stroke-linejoin="round"/>
<path d="M14 26C13.6292 25.8747 13.3296 25.6984 13.133 25.4899C12.9995 25.3368 12.9653 25.1645 13.0359 25" stroke="#FBC103" stroke-width="2" stroke-linejoin="round"/>
<path d="M12 16.2176C12.6816 15.9633 13.4395 15.9308 14.1446 16.1259C14.6008 16.2552 15.016 16.4823 15.355 16.7878C16.2772 17.6516 16.2486 18.9323 16.2367 19.5046C16.2093 20.7215 15.7673 21.1588 16.1104 21.6512C16.4535 22.1436 17.3209 22.2494 18 22.2451C17.9654 22.3272 17.7546 22.8001 17.2446 22.9524C16.6692 23.1241 15.9341 22.8239 15.5766 22.176" stroke="#FBC103" stroke-linecap="round" stroke-linejoin="round"/>
</svg>
