<svg width="40" height="37" viewBox="0 0 40 37" fill="none" xmlns="http://www.w3.org/2000/svg">
<path d="M1 22.0411L1.06936 31.48C1.07771 32.2723 1.35617 33.0383 1.85934 33.6532C2.51373 34.4128 3.43624 34.8947 4.43737 35H35.2659C36.1218 34.9141 36.9296 34.5665 37.578 34.0052C38.2859 33.3827 38.7385 32.5234 38.8497 31.591L39 9.50698C38.9275 8.68715 38.5848 7.91392 38.025 7.30699C37.2972 6.55108 36.3094 6.09487 35.2582 6.02909H5.11175C4.96917 6.00614 3.23121 5.78805 2.05973 7.02004C1.51224 7.60938 1.21177 8.38388 1.21963 9.18559V17.3083C1.2385 17.774 1.35043 18.2313 1.54889 18.6536C1.74736 19.076 2.02841 19.4549 2.3757 19.7685C3.06801 20.2703 3.91261 20.5215 4.76877 20.4801H35.4547C36.0589 20.4512 36.6426 20.2536 37.1387 19.91C37.2443 19.8353 37.3436 19.7521 37.4355 19.6613" stroke="#FBC103" stroke-width="2" stroke-linecap="round" stroke-linejoin="round"/>
<path d="M12.0383 5.90895C12.023 5.02512 12.0102 4.13764 12 3.24653C12.007 2.96504 12.0793 2.6885 12.2117 2.43666C12.3442 2.18482 12.5335 1.9639 12.7661 1.78967C13.3981 1.32691 14.161 1.05423 14.9571 1.00662H23.4339C24.2907 0.960715 25.1429 1.15444 25.8853 1.56386C26.153 1.71125 26.3867 1.90853 26.5723 2.14384C26.7579 2.37915 26.8917 2.64767 26.9655 2.93331L27 6" stroke="#FBC103" stroke-width="2" stroke-linejoin="round"/>
</svg>
