<svg width="40" height="37" viewBox="0 0 40 37" fill="none" xmlns="http://www.w3.org/2000/svg">
<g clip-path="url(#clip0)">
<path d="M0.358612 22.4963L0.430329 32.3259C0.438964 33.151 0.726885 33.9487 1.24714 34.5891C1.92376 35.3801 2.87761 35.882 3.91274 35.9916H35.7884C36.6734 35.9022 37.5087 35.5402 38.1791 34.9557C38.911 34.3073 39.379 33.4125 39.494 32.4415L39.6494 9.44316C39.5744 8.5894 39.2201 7.78415 38.6413 7.1521C37.8887 6.36489 36.8674 5.88979 35.7805 5.82129H4.61002C4.4626 5.79738 2.66561 5.57027 1.45434 6.85326C0.888253 7.467 0.577577 8.27357 0.585705 9.10847V17.5675C0.605214 18.0524 0.720942 18.5287 0.92615 18.9685C1.13136 19.4083 1.42195 19.803 1.78104 20.1295C2.49687 20.6521 3.37015 20.9137 4.2554 20.8706H35.9837C36.6084 20.8405 37.2119 20.6347 37.7249 20.2769C37.834 20.1991 37.9367 20.1125 38.0317 20.0179" stroke="#B7B7B7" stroke-linecap="round" stroke-linejoin="round"/>
<path d="M12.1128 5.6699C12.0968 4.703 12.0835 3.73211 12.0729 2.75725C12.0802 2.4493 12.1554 2.14677 12.2932 1.87126C12.4309 1.59575 12.6278 1.35406 12.8698 1.16346C13.5272 0.657205 14.3208 0.358897 15.1489 0.306806H23.9665C24.8579 0.25659 25.7444 0.46852 26.5166 0.916428C26.7951 1.07767 27.0381 1.29348 27.2312 1.55092C27.4243 1.80835 27.5634 2.1021 27.6402 2.41459L27.6761 5.76951" stroke="#B7B7B7" stroke-linejoin="round"/>
</g>
<defs>
<clipPath id="clip0">
<rect width="40" height="36.3502" fill="white"/>
</clipPath>
</defs>
</svg>
