<svg width="198" height="76" viewBox="0 0 198 76" fill="none" xmlns="http://www.w3.org/2000/svg">
<path d="M74.3398 47H81.8838C86.8978 47 89.2898 44.47 89.2898 39.502V36.742C89.2898 33.154 88.0938 30.808 85.1958 29.98V29.888C87.6338 29.014 88.7838 26.898 88.7838 23.448V22.114C88.7838 17.1 86.6218 14.8 81.5158 14.8H74.3398V47ZM77.9278 28.554V18.066H81.4238C84.0918 18.066 85.1958 19.354 85.1958 22.482V24.138C85.1958 27.358 83.7698 28.554 80.9638 28.554H77.9278ZM77.9278 43.734V31.82H81.1478C84.4138 31.82 85.7018 33.108 85.7018 36.65V39.41C85.7018 42.492 84.5058 43.734 81.8838 43.734H77.9278ZM99.8396 47.46C104.624 47.46 107.246 44.608 107.246 39.502V22.252C107.246 17.146 104.624 14.34 99.8396 14.34C95.1016 14.34 92.4796 17.146 92.4796 22.252V39.502C92.4796 44.608 95.1016 47.46 99.8396 47.46ZM99.8396 44.194C97.4476 44.194 96.0676 42.814 96.0676 39.732V22.022C96.0676 18.986 97.4476 17.606 99.8396 17.606C102.278 17.606 103.658 18.986 103.658 22.022V39.732C103.658 42.814 102.278 44.194 99.8396 44.194ZM111.266 47H114.532V20.826L122.674 47H126.4V14.8H123.134V37.8L115.866 14.8H111.266V47ZM130.807 47H134.073V20.826L142.215 47H145.941V14.8H142.675V37.8L135.407 14.8H130.807V47ZM150.348 47H153.936V14.8H150.348V47ZM158.299 47H171.501V43.734H161.887V31.82H169.707V28.554H161.887V18.066H171.501V14.8H158.299V47ZM174.603 24.368H176.259L178.513 19.078V14.8H174.879V19.4H176.167L174.603 24.368ZM189.352 47.46C194.044 47.46 196.666 44.608 196.666 39.594C196.666 35.684 195.24 33.108 190.824 29.428C187.006 26.3 185.718 24.46 185.718 21.792C185.718 18.986 187.098 17.606 189.398 17.606C191.744 17.606 193.078 18.986 193.078 21.884V23.402H196.482V22.114C196.482 17.192 194.044 14.34 189.398 14.34C184.752 14.34 182.176 17.192 182.176 22.022C182.176 25.656 183.648 28.232 188.11 31.912C191.836 34.994 193.078 36.88 193.078 39.87C193.078 42.814 191.652 44.194 189.306 44.194C187.006 44.194 185.58 42.814 185.58 39.916V37.846H182.176V39.64C182.176 44.608 184.66 47.46 189.352 47.46Z" fill="#141414"/>
<path d="M85.1625 63.78C86.0825 63.98 86.7892 64.38 87.2825 64.98C87.7892 65.5667 88.0425 66.3267 88.0425 67.26C88.0425 68.46 87.5958 69.3867 86.7025 70.04C85.8225 70.68 84.5158 71 82.7825 71H76.3425V57H82.3825C83.9425 57 85.1492 57.3133 86.0025 57.94C86.8692 58.5667 87.3025 59.4533 87.3025 60.6C87.3025 61.3733 87.1092 62.0333 86.7225 62.58C86.3492 63.1133 85.8292 63.5133 85.1625 63.78ZM77.8225 58.22V63.3H82.2825C83.4158 63.3 84.2892 63.0867 84.9025 62.66C85.5158 62.22 85.8225 61.5867 85.8225 60.76C85.8225 59.9333 85.5158 59.3067 84.9025 58.88C84.2892 58.44 83.4158 58.22 82.2825 58.22H77.8225ZM82.7625 69.78C84.0158 69.78 84.9625 69.5667 85.6025 69.14C86.2425 68.7133 86.5625 68.0467 86.5625 67.14C86.5625 65.3933 85.2958 64.52 82.7625 64.52H77.8225V69.78H82.7625ZM92.4806 62.54C92.814 61.8333 93.3073 61.3 93.9606 60.94C94.6273 60.58 95.4473 60.4 96.4206 60.4V61.78L96.0806 61.76C94.974 61.76 94.1073 62.1 93.4806 62.78C92.854 63.46 92.5406 64.4133 92.5406 65.64V71H91.1206V60.48H92.4806V62.54ZM98.9917 60.48H100.412V71H98.9917V60.48ZM99.7117 58.18C99.4184 58.18 99.1717 58.08 98.9717 57.88C98.7717 57.68 98.6717 57.44 98.6717 57.16C98.6717 56.8933 98.7717 56.66 98.9717 56.46C99.1717 56.26 99.4184 56.16 99.7117 56.16C100.005 56.16 100.252 56.26 100.452 56.46C100.652 56.6467 100.752 56.8733 100.752 57.14C100.752 57.4333 100.652 57.68 100.452 57.88C100.252 58.08 100.005 58.18 99.7117 58.18ZM114.103 60.48V69.72C114.103 71.5067 113.663 72.8267 112.783 73.68C111.916 74.5467 110.603 74.98 108.843 74.98C107.869 74.98 106.943 74.8333 106.063 74.54C105.196 74.26 104.489 73.8667 103.943 73.36L104.663 72.28C105.169 72.7333 105.783 73.0867 106.503 73.34C107.236 73.5933 108.003 73.72 108.803 73.72C110.136 73.72 111.116 73.4067 111.743 72.78C112.369 72.1667 112.683 71.2067 112.683 69.9V68.56C112.243 69.2267 111.663 69.7333 110.943 70.08C110.236 70.4267 109.449 70.6 108.583 70.6C107.596 70.6 106.696 70.3867 105.883 69.96C105.083 69.52 104.449 68.9133 103.983 68.14C103.529 67.3533 103.303 66.4667 103.303 65.48C103.303 64.4933 103.529 63.6133 103.983 62.84C104.449 62.0667 105.083 61.4667 105.883 61.04C106.683 60.6133 107.583 60.4 108.583 60.4C109.476 60.4 110.283 60.58 111.003 60.94C111.723 61.3 112.303 61.82 112.743 62.5V60.48H114.103ZM108.723 69.34C109.483 69.34 110.169 69.18 110.783 68.86C111.396 68.5267 111.869 68.0667 112.203 67.48C112.549 66.8933 112.723 66.2267 112.723 65.48C112.723 64.7333 112.549 64.0733 112.203 63.5C111.869 62.9133 111.396 62.46 110.783 62.14C110.183 61.8067 109.496 61.64 108.723 61.64C107.963 61.64 107.276 61.8 106.663 62.12C106.063 62.44 105.589 62.8933 105.243 63.48C104.909 64.0667 104.743 64.7333 104.743 65.48C104.743 66.2267 104.909 66.8933 105.243 67.48C105.589 68.0667 106.063 68.5267 106.663 68.86C107.276 69.18 107.963 69.34 108.723 69.34ZM123.434 60.4C124.754 60.4 125.8 60.7867 126.574 61.56C127.36 62.32 127.754 63.4333 127.754 64.9V71H126.334V65.04C126.334 63.9467 126.06 63.1133 125.514 62.54C124.967 61.9667 124.187 61.68 123.174 61.68C122.04 61.68 121.14 62.02 120.474 62.7C119.82 63.3667 119.494 64.2933 119.494 65.48V71H118.074V56.16H119.494V62.32C119.88 61.7067 120.414 61.2333 121.094 60.9C121.774 60.5667 122.554 60.4 123.434 60.4ZM137.149 70.36C136.882 70.6 136.549 70.7867 136.149 70.92C135.762 71.04 135.356 71.1 134.929 71.1C133.942 71.1 133.182 70.8333 132.649 70.3C132.116 69.7667 131.849 69.0133 131.849 68.04V61.68H129.969V60.48H131.849V58.18H133.269V60.48H136.469V61.68H133.269V67.96C133.269 68.5867 133.422 69.0667 133.729 69.4C134.049 69.72 134.502 69.88 135.089 69.88C135.382 69.88 135.662 69.8333 135.929 69.74C136.209 69.6467 136.449 69.5133 136.649 69.34L137.149 70.36ZM145.268 57H146.748V71H145.268V57ZM160.603 56.16V71H159.243V68.92C158.817 69.6267 158.25 70.1667 157.543 70.54C156.85 70.9133 156.063 71.1 155.183 71.1C154.197 71.1 153.303 70.8733 152.503 70.42C151.703 69.9667 151.077 69.3333 150.623 68.52C150.17 67.7067 149.943 66.78 149.943 65.74C149.943 64.7 150.17 63.7733 150.623 62.96C151.077 62.1467 151.703 61.52 152.503 61.08C153.303 60.6267 154.197 60.4 155.183 60.4C156.037 60.4 156.803 60.58 157.483 60.94C158.177 61.2867 158.743 61.8 159.183 62.48V56.16H160.603ZM155.303 69.84C156.037 69.84 156.697 69.6733 157.283 69.34C157.883 68.9933 158.35 68.5067 158.683 67.88C159.03 67.2533 159.203 66.54 159.203 65.74C159.203 64.94 159.03 64.2267 158.683 63.6C158.35 62.9733 157.883 62.4933 157.283 62.16C156.697 61.8133 156.037 61.64 155.303 61.64C154.557 61.64 153.883 61.8133 153.283 62.16C152.697 62.4933 152.23 62.9733 151.883 63.6C151.55 64.2267 151.383 64.94 151.383 65.74C151.383 66.54 151.55 67.2533 151.883 67.88C152.23 68.5067 152.697 68.9933 153.283 69.34C153.883 69.6733 154.557 69.84 155.303 69.84ZM173.718 66.18H164.918C164.998 67.2733 165.418 68.16 166.178 68.84C166.938 69.5067 167.898 69.84 169.058 69.84C169.711 69.84 170.311 69.7267 170.858 69.5C171.405 69.26 171.878 68.9133 172.278 68.46L173.078 69.38C172.611 69.94 172.025 70.3667 171.318 70.66C170.625 70.9533 169.858 71.1 169.018 71.1C167.938 71.1 166.978 70.8733 166.138 70.42C165.311 69.9533 164.665 69.3133 164.198 68.5C163.731 67.6867 163.498 66.7667 163.498 65.74C163.498 64.7133 163.718 63.7933 164.158 62.98C164.611 62.1667 165.225 61.5333 165.998 61.08C166.785 60.6267 167.665 60.4 168.638 60.4C169.611 60.4 170.485 60.6267 171.258 61.08C172.031 61.5333 172.638 62.1667 173.078 62.98C173.518 63.78 173.738 64.7 173.738 65.74L173.718 66.18ZM168.638 61.62C167.625 61.62 166.771 61.9467 166.078 62.6C165.398 63.24 165.011 64.08 164.918 65.12H172.378C172.285 64.08 171.891 63.24 171.198 62.6C170.518 61.9467 169.665 61.62 168.638 61.62ZM180.015 60.4C181.389 60.4 182.442 60.7467 183.175 61.44C183.909 62.12 184.275 63.1333 184.275 64.48V71H182.915V69.36C182.595 69.9067 182.122 70.3333 181.495 70.64C180.882 70.9467 180.149 71.1 179.295 71.1C178.122 71.1 177.189 70.82 176.495 70.26C175.802 69.7 175.455 68.96 175.455 68.04C175.455 67.1467 175.775 66.4267 176.415 65.88C177.069 65.3333 178.102 65.06 179.515 65.06H182.855V64.42C182.855 63.5133 182.602 62.8267 182.095 62.36C181.589 61.88 180.849 61.64 179.875 61.64C179.209 61.64 178.569 61.7533 177.955 61.98C177.342 62.1933 176.815 62.4933 176.375 62.88L175.735 61.82C176.269 61.3667 176.909 61.02 177.655 60.78C178.402 60.5267 179.189 60.4 180.015 60.4ZM179.515 69.98C180.315 69.98 181.002 69.8 181.575 69.44C182.149 69.0667 182.575 68.5333 182.855 67.84V66.12H179.555C177.755 66.12 176.855 66.7467 176.855 68C176.855 68.6133 177.089 69.1 177.555 69.46C178.022 69.8067 178.675 69.98 179.515 69.98ZM190.952 71.1C190.099 71.1 189.279 70.98 188.492 70.74C187.719 70.4867 187.112 70.1733 186.672 69.8L187.312 68.68C187.752 69.0267 188.306 69.3133 188.972 69.54C189.639 69.7533 190.332 69.86 191.052 69.86C192.012 69.86 192.719 69.7133 193.172 69.42C193.639 69.1133 193.872 68.6867 193.872 68.14C193.872 67.7533 193.746 67.4533 193.492 67.24C193.239 67.0133 192.919 66.8467 192.532 66.74C192.146 66.62 191.632 66.5067 190.992 66.4C190.139 66.24 189.452 66.08 188.932 65.92C188.412 65.7467 187.966 65.46 187.592 65.06C187.232 64.66 187.052 64.1067 187.052 63.4C187.052 62.52 187.419 61.8 188.152 61.24C188.886 60.68 189.906 60.4 191.212 60.4C191.892 60.4 192.572 60.4933 193.252 60.68C193.932 60.8533 194.492 61.0867 194.932 61.38L194.312 62.52C193.446 61.92 192.412 61.62 191.212 61.62C190.306 61.62 189.619 61.78 189.152 62.1C188.699 62.42 188.472 62.84 188.472 63.36C188.472 63.76 188.599 64.08 188.852 64.32C189.119 64.56 189.446 64.74 189.832 64.86C190.219 64.9667 190.752 65.08 191.432 65.2C192.272 65.36 192.946 65.52 193.452 65.68C193.959 65.84 194.392 66.1133 194.752 66.5C195.112 66.8867 195.292 67.42 195.292 68.1C195.292 69.02 194.906 69.7533 194.132 70.3C193.372 70.8333 192.312 71.1 190.952 71.1Z" fill="#FBC103"/>
<path d="M1.10669 32.6082H8.76121" stroke="#FEBF04" stroke-width="2" stroke-linecap="round"/>
<path d="M10.5276 10.4336L16.0229 15.6853" stroke="#FEBF04" stroke-width="2" stroke-linecap="round"/>
<path d="M10.5276 54.7829L16.0229 49.5312" stroke="#FEBF04" stroke-width="2" stroke-linecap="round"/>
<path d="M50.1736 15.6853L55.6689 10.4336" stroke="#FEBF04" stroke-width="2" stroke-linecap="round"/>
<path d="M50.1736 49.5312L55.6689 54.7829" stroke="#FEBF04" stroke-width="2" stroke-linecap="round"/>
<path d="M33.2947 1.09683V8.68307" stroke="#FEBF04" stroke-width="2" stroke-linecap="round"/>
<path d="M57.2388 32.6082H64.8933" stroke="#FEBF04" stroke-width="2" stroke-linecap="round"/>
<path d="M42.9159 54.5663C42.9395 52.3334 43.2937 50.1161 43.9672 47.9853C45.3838 43.5376 47.3427 42.3695 48.6873 38.6622C49.119 37.4722 50.6905 32.7174 49.213 28.2423C47.1103 21.8643 39.5183 18.1405 32.9445 18.3708C27.5382 18.5628 20.8039 21.4968 18.2474 27.6939C16.4601 32.0264 17.3953 36.304 17.7217 37.5654C18.8672 41.9527 21.2189 42.9399 23.4987 47.4369C24.7493 49.9102 26.1604 53.7985 26.2102 59.502H42.4787C43.369 59.6857 44.1682 60.1676 44.742 60.8668C45.3158 61.566 45.629 62.4397 45.629 63.3409C45.629 64.2422 45.3158 65.1159 44.742 65.8151C44.1682 66.5142 43.369 66.9962 42.4787 67.1798H28.3074" stroke="#FBC103" stroke-width="2" stroke-linecap="round" stroke-linejoin="round"/>
<path d="M27.9753 67.1798H44.0226C44.5738 67.1082 45.1341 67.1539 45.6661 67.314C46.198 67.4741 46.6894 67.7449 47.1073 68.1083C47.5252 68.4717 47.86 68.9193 48.0894 69.4212C48.3188 69.9231 48.4375 70.4678 48.4375 71.0188C48.4375 71.5697 48.3188 72.1144 48.0894 72.6163C47.86 73.1182 47.5252 73.5658 47.1073 73.9292C46.6894 74.2926 46.198 74.5634 45.6661 74.7235C45.1341 74.8836 44.5738 74.9293 44.0226 74.8577H27.9753V64.9862" stroke="#FBC103" stroke-width="2" stroke-linecap="round" stroke-linejoin="round"/>
<path d="M33.5088 60.3246V71.5672" stroke="#FBC103" stroke-width="2" stroke-linecap="round" stroke-linejoin="round"/>
<path d="M27.9753 63.0667C28.4337 63.0667 28.8053 62.6984 28.8053 62.2441C28.8053 61.7898 28.4337 61.4215 27.9753 61.4215C27.5169 61.4215 27.1453 61.7898 27.1453 62.2441C27.1453 62.6984 27.5169 63.0667 27.9753 63.0667Z" fill="#FBC103"/>
</svg>
